<svg width="23" height="22" viewBox="0 0 23 22" fill="none" xmlns="http://www.w3.org/2000/svg">
<path fill-rule="evenodd" clip-rule="evenodd" d="M0 11C0 10.4477 0.447715 10 1 10H7.41667C7.79544 10 8.1417 10.214 8.31109 10.5528L9.7847 13.5H13.2981L15.3346 10.4453C15.5201 10.1671 15.8323 10 16.1667 10H22C22.5523 10 23 10.4477 23 11C23 11.5523 22.5523 12 22 12H16.7019L14.6654 15.0547C14.4799 15.3329 14.1677 15.5 13.8333 15.5H9.16667C8.78789 15.5 8.44163 15.286 8.27224 14.9472L6.79863 12H1C0.447715 12 0 11.5523 0 11Z" fill="#1F1F29"/>
<path fill-rule="evenodd" clip-rule="evenodd" d="M3.27979 2.07252C3.59692 1.22687 4.40534 0.666626 5.3085 0.666626H17.6915C18.5945 0.666626 19.4031 1.22673 19.7202 2.07253C19.7202 2.07248 19.7202 2.07257 19.7202 2.07253L22.9363 10.6488C22.9784 10.7611 23 10.88 23 11V18C23 19.8409 21.5077 21.3333 19.6667 21.3333H3.33333C1.49239 21.3333 0 19.841 0 18V11C0 10.88 0.0215669 10.7611 0.0636708 10.6488L3.27979 2.07252ZM5.15244 2.77478C5.15244 2.77479 5.15244 2.77478 5.15244 2.77478L2 11.1813V18C2 18.7364 2.59694 19.3333 3.33333 19.3333H19.6667C20.4031 19.3333 21 18.7364 21 18V11.1813L17.8475 2.77478C17.8232 2.70993 17.761 2.66663 17.6915 2.66663H5.3085C5.23904 2.66663 5.17684 2.70972 5.15244 2.77478Z" fill="#1F1F29"/>
</svg>
