<svg width="32" height="27" viewBox="0 0 32 27" fill="none" xmlns="http://www.w3.org/2000/svg">
<path d="M25 17.3333C27.8227 17.3333 30.1111 19.6217 30.1111 22.4444V25H27.5556" stroke="#3EB742" stroke-width="3" stroke-linecap="round" stroke-linejoin="round"/>
<path d="M21.167 12.0612C23.3714 11.4938 25.0003 9.49267 25.0003 7.1111C25.0003 4.72952 23.3714 2.7284 21.167 2.16101" stroke="#3EB742" stroke-width="3" stroke-linecap="round" stroke-linejoin="round"/>
<path d="M12.2215 12.2222C15.0442 12.2222 17.3326 9.9339 17.3326 7.11111C17.3326 4.28832 15.0442 2 12.2215 2C9.39867 2 7.11035 4.28832 7.11035 7.11111C7.11035 9.9339 9.39867 12.2222 12.2215 12.2222Z" stroke="#3EB742" stroke-width="3" stroke-linecap="round" stroke-linejoin="round"/>
<path d="M17.3333 17.3333H7.11111C4.28832 17.3333 2 19.6217 2 22.4444V25H22.4444V22.4444C22.4444 19.6217 20.1561 17.3333 17.3333 17.3333Z" stroke="#3EB742" stroke-width="3" stroke-linecap="round" stroke-linejoin="round"/>
</svg>
