<svg width="24" height="24" viewBox="0 0 24 24" fill="none" xmlns="http://www.w3.org/2000/svg">
<path d="M20.25 1H3.75C2.23122 1 1 2.23122 1 3.75V20.25C1 20.4041 1.01268 20.5553 1.03703 20.7024C1.25279 22.0059 2.38531 23 3.75 23H20.25C21.7688 23 23 21.7688 23 20.25V15.0114V3.75C23 2.23122 21.7688 1 20.25 1Z" stroke="#1F1F29" stroke-width="2" stroke-linecap="round" stroke-linejoin="round"/>
<path d="M10.625 7.875C10.625 9.39382 9.39382 10.625 7.875 10.625C6.35622 10.625 5.125 9.39382 5.125 7.875C5.125 6.35622 6.35622 5.125 7.875 5.125C9.39382 5.125 10.625 6.35622 10.625 7.875Z" stroke="#1F1F29" stroke-width="2" stroke-linecap="round" stroke-linejoin="round"/>
<path d="M1.03711 20.7024L6.29057 15.4489C7.22561 14.6308 8.59311 14.5413 9.62684 15.2304L10.327 15.6971C11.3233 16.3614 12.6352 16.3044 13.5703 15.5564L17.2115 12.6434C18.1396 11.9009 19.4324 11.8427 20.4189 12.479C20.5283 12.5496 20.6256 12.6369 20.7176 12.729L23.0001 15.0114" stroke="#1F1F29" stroke-width="2" stroke-linecap="round" stroke-linejoin="round"/>
</svg>
