<svg width="39" height="23" viewBox="0 0 39 23" fill="none" xmlns="http://www.w3.org/2000/svg">
<path d="M35.0556 2H3.94444C2.87057 2 2 2.87057 2 3.94444V19.5C2 20.5739 2.87057 21.4444 3.94444 21.4444H35.0556C36.1295 21.4444 37 20.5739 37 19.5V3.94444C37 2.87057 36.1295 2 35.0556 2Z" stroke="#FFBA34" stroke-width="3" stroke-linecap="round" stroke-linejoin="round"/>
<path d="M7.83301 6.86111V16.5833" stroke="#FFBA34" stroke-width="3" stroke-linecap="round" stroke-linejoin="round"/>
<path d="M24.3609 11.7222C24.3609 14.4069 22.1845 16.5833 19.4998 16.5833C16.8151 16.5833 14.6387 14.4069 14.6387 11.7222C14.6387 9.03753 16.8151 6.86111 19.4998 6.86111C22.1845 6.86111 24.3609 9.03753 24.3609 11.7222Z" stroke="#FFBA34" stroke-width="3" stroke-linecap="round" stroke-linejoin="round"/>
<path d="M31.167 6.86111V16.5833" stroke="#FFBA34" stroke-width="3" stroke-linecap="round" stroke-linejoin="round"/>
</svg>
