<svg width="28" height="18" viewBox="0 0 28 18" fill="none" xmlns="http://www.w3.org/2000/svg">
<path d="M3.28571 17H1V15.8572C1 13.7271 2.45688 11.9372 4.42857 11.4297" stroke="#1F1F29" stroke-width="2" stroke-linecap="round" stroke-linejoin="round"/>
<path d="M6.71443 7.66206C5.38278 7.19143 4.42871 5.9214 4.42871 4.42858C4.42871 2.93576 5.38278 1.66577 6.71443 1.19511" stroke="#1F1F29" stroke-width="2" stroke-linecap="round" stroke-linejoin="round"/>
<path d="M23.857 17H26.1427V15.8572C26.1427 13.7271 24.6858 11.9372 22.7141 11.4297" stroke="#1F1F29" stroke-width="2" stroke-linecap="round" stroke-linejoin="round"/>
<path d="M20.4287 1.19511C21.7604 1.66577 22.7144 2.93576 22.7144 4.42858C22.7144 5.9214 21.7604 7.19143 20.4287 7.66206" stroke="#1F1F29" stroke-width="2" stroke-linecap="round" stroke-linejoin="round"/>
<path d="M15.857 11.2857H11.2855C8.76081 11.2857 6.71411 13.3324 6.71411 15.8571V17H20.4284V15.8571C20.4284 13.3324 18.3817 11.2857 15.857 11.2857Z" stroke="#1F1F29" stroke-width="2" stroke-linecap="round" stroke-linejoin="round"/>
<path d="M13.5714 7.85714C15.465 7.85714 17 6.32211 17 4.42856C17 2.53502 15.465 0.999992 13.5714 0.999992C11.6778 0.999992 10.1428 2.53502 10.1428 4.42856C10.1428 6.32211 11.6778 7.85714 13.5714 7.85714Z" stroke="#1F1F29" stroke-width="2" stroke-linecap="round" stroke-linejoin="round"/>
</svg>
