<svg width="18" height="18" viewBox="0 0 18 18" fill="none" xmlns="http://www.w3.org/2000/svg">
<path d="M15 1H3C1.89543 1 1 1.89543 1 3V15C1 15.1121 1.00922 15.222 1.02693 15.329C1.18385 16.277 2.0075 17 3 17H15C16.1046 17 17 16.1046 17 15V11.1901V3C17 1.89543 16.1046 1 15 1Z" stroke="#219EBC" stroke-width="2" stroke-linecap="round" stroke-linejoin="round"/>
<path d="M8 6C8 7.1046 7.1046 8 6 8C4.89543 8 4 7.1046 4 6C4 4.89543 4.89543 4 6 4C7.1046 4 8 4.89543 8 6Z" stroke="#219EBC" stroke-width="2" stroke-linecap="round" stroke-linejoin="round"/>
<path d="M1.02734 15.329L4.84804 11.5083C5.52807 10.9133 6.52261 10.8482 7.27442 11.3494L7.78362 11.6888C8.50822 12.1719 9.46232 12.1305 10.1424 11.5865L12.7905 9.46791C13.4655 8.92791 14.4057 8.88561 15.1232 9.34841C15.2027 9.39971 15.2735 9.46321 15.3404 9.53021L17.0004 11.1901" stroke="#219EBC" stroke-width="2" stroke-linecap="round" stroke-linejoin="round"/>
</svg>
