<svg width="24" height="24" viewBox="0 0 24 24" fill="none" xmlns="http://www.w3.org/2000/svg">
<path d="M10.7778 1H13.2222C13.8973 1 14.4444 1.54721 14.4444 2.22222V2.91741C14.4444 3.44028 14.7953 3.89453 15.2782 4.09501C15.7614 4.29558 16.3239 4.21914 16.6937 3.84928L17.1854 3.35756C17.6627 2.88024 18.4366 2.88024 18.9139 3.35756L20.6423 5.08604C21.1197 5.56335 21.1196 6.33721 20.6423 6.81453L20.1508 7.30618C19.7808 7.67606 19.7044 8.23857 19.905 8.72168C20.1054 9.20462 20.5597 9.55556 21.0827 9.55556H21.7778C22.4528 9.55556 23 10.1027 23 10.7778V13.2222C23 13.8973 22.4528 14.4444 21.7778 14.4444H21.0826C20.5597 14.4444 20.1055 14.7953 19.905 15.2782C19.7044 15.7614 19.7808 16.3239 20.1508 16.6937L20.6423 17.1854C21.1197 17.6627 21.1197 18.4366 20.6423 18.9139L18.9139 20.6423C18.4366 21.1197 17.6627 21.1197 17.1854 20.6423L16.6937 20.1508C16.3239 19.7808 15.7614 19.7044 15.2782 19.905C14.7953 20.1055 14.4444 20.5597 14.4444 21.0826V21.7778C14.4444 22.4528 13.8973 23 13.2222 23H10.7778C10.1027 23 9.55556 22.4528 9.55556 21.7778V21.0827C9.55556 20.5597 9.20462 20.1054 8.72168 19.905C8.23857 19.7044 7.67606 19.7808 7.30618 20.1508L6.8145 20.6423C6.33719 21.1197 5.56333 21.1197 5.08602 20.6423L3.35753 18.9139C2.88023 18.4366 2.88023 17.6627 3.35753 17.1854L3.84928 16.6937C4.21914 16.3239 4.29558 15.7614 4.09501 15.2782C3.89453 14.7953 3.44028 14.4444 2.91741 14.4444H2.22222C1.54721 14.4444 1 13.8973 1 13.2222V10.7778C1 10.1027 1.54721 9.55556 2.22222 9.55556H2.91739C3.44026 9.55556 3.89453 9.20463 4.09502 8.72171C4.2956 8.23861 4.21916 7.67613 3.84928 7.30625L3.35756 6.81453C2.88024 6.33721 2.88024 5.56335 3.35756 5.08605L5.08604 3.35756C5.56335 2.88025 6.33721 2.88025 6.81453 3.35756L7.30625 3.84928C7.67612 4.21916 8.23861 4.2956 8.72171 4.09502C9.20463 3.89453 9.55556 3.44026 9.55556 2.91737V2.22222C9.55556 1.54721 10.1027 1 10.7778 1Z" stroke="#1F1F29" stroke-width="2"/>
<path d="M14.4446 12C14.4446 13.3501 13.3502 14.4444 12.0001 14.4444C10.65 14.4444 9.55566 13.3501 9.55566 12C9.55566 10.6499 10.65 9.55554 12.0001 9.55554C13.3502 9.55554 14.4446 10.6499 14.4446 12Z" stroke="#1F1F29" stroke-width="2"/>
</svg>
