<svg width="39" height="26" viewBox="0 0 39 26" fill="none" xmlns="http://www.w3.org/2000/svg">
<path d="M4.69023 24.5H1.5V22.9167C1.5 19.9657 3.5334 17.4858 6.28534 16.7828" stroke="#FFBA34" stroke-width="3" stroke-linecap="round" stroke-linejoin="round"/>
<path d="M9.47538 11.5631C7.61677 10.911 6.28516 9.15153 6.28516 7.08334C6.28516 5.01516 7.61677 3.2557 9.47538 2.60364" stroke="#FFBA34" stroke-width="3" stroke-linecap="round" stroke-linejoin="round"/>
<path d="M33.4022 24.5H36.5925V22.9167C36.5925 19.9657 34.559 17.4858 31.8071 16.7828" stroke="#FFBA34" stroke-width="3" stroke-linecap="round" stroke-linejoin="round"/>
<path d="M28.6172 2.60364C30.4758 3.2557 31.8074 5.01516 31.8074 7.08334C31.8074 9.15153 30.4758 10.911 28.6172 11.5631" stroke="#FFBA34" stroke-width="3" stroke-linecap="round" stroke-linejoin="round"/>
<path d="M22.2365 16.5833H15.856C12.3322 16.5833 9.47559 19.4189 9.47559 22.9167V24.5H28.6169V22.9167C28.6169 19.4189 25.7603 16.5833 22.2365 16.5833Z" stroke="#FFBA34" stroke-width="3" stroke-linecap="round" stroke-linejoin="round"/>
<path d="M19.0461 11.8333C21.689 11.8333 23.8314 9.70669 23.8314 7.08334C23.8314 4.46 21.689 2.33334 19.0461 2.33334C16.4031 2.33334 14.2607 4.46 14.2607 7.08334C14.2607 9.70669 16.4031 11.8333 19.0461 11.8333Z" stroke="#FFBA34" stroke-width="3" stroke-linecap="round" stroke-linejoin="round"/>
</svg>
