<svg width="25" height="22" viewBox="0 0 25 22" fill="none" xmlns="http://www.w3.org/2000/svg">
<path d="M12.25 4.33334L10.7 2.72589C9.63436 1.62083 8.1891 1 6.68211 1C3.54396 1 1 3.63819 1 6.89256C1 8.45536 1.59865 9.95413 2.66425 11.0593L3.20982 11.625L12.25 21L21.2901 11.625L21.8358 11.0593C22.9014 9.95413 23.5 8.45536 23.5 6.89256C23.5 3.63819 20.956 1 17.8179 1C16.3109 1 14.8656 1.62083 13.8 2.72589L12.25 4.33334Z" stroke="#32CEFF" stroke-width="2" stroke-linecap="round" stroke-linejoin="round"/>
<path d="M3.20996 11.625H7.25015L8.50015 9.125L11.0001 14.125L14.7501 6L17.2501 11.625H21.2904" stroke="#32CEFF" stroke-width="2" stroke-linecap="round" stroke-linejoin="round"/>
</svg>
