<svg width="29" height="19" viewBox="0 0 29 19" fill="none" xmlns="http://www.w3.org/2000/svg">
<path d="M3.42857 18H1V16.7857C1 14.5226 2.54794 12.6207 4.64286 12.0816" stroke="#32CEFF" stroke-width="2" stroke-linecap="round" stroke-linejoin="round"/>
<path d="M7.07115 8.07844C5.65628 7.5784 4.64258 6.229 4.64258 4.64287C4.64258 3.05675 5.65628 1.70739 7.07115 1.20731" stroke="#32CEFF" stroke-width="2" stroke-linecap="round" stroke-linejoin="round"/>
<path d="M25.2856 18H27.7141V16.7857C27.7141 14.5226 26.1662 12.6207 24.0713 12.0816" stroke="#32CEFF" stroke-width="2" stroke-linecap="round" stroke-linejoin="round"/>
<path d="M21.6426 1.20731C23.0575 1.70739 24.0711 3.05675 24.0711 4.64287C24.0711 6.229 23.0575 7.5784 21.6426 8.07844" stroke="#32CEFF" stroke-width="2" stroke-linecap="round" stroke-linejoin="round"/>
<path d="M16.7856 11.9286H11.9284C9.24591 11.9286 7.07129 14.1032 7.07129 16.7857V18H21.6427V16.7857C21.6427 14.1032 19.4681 11.9286 16.7856 11.9286Z" stroke="#32CEFF" stroke-width="2" stroke-linecap="round" stroke-linejoin="round"/>
<path d="M14.3567 8.28572C16.3687 8.28572 17.9996 6.65475 17.9996 4.64286C17.9996 2.63097 16.3687 1 14.3567 1C12.3448 1 10.7139 2.63097 10.7139 4.64286C10.7139 6.65475 12.3448 8.28572 14.3567 8.28572Z" stroke="#32CEFF" stroke-width="2" stroke-linecap="round" stroke-linejoin="round"/>
</svg>
